# xmcd
# 
# Track frame offsets:
#     150
#     13274
#     27956
#     42070
#     56161
#     67548
#     81514
#     94880
#     109335
#     122639
#     136862
#     146002
#     159756
#     176676
#     190035
#     203542
#     218939
#     231448
#     248151
#     259803
#     276096
#     289373
#     301921
# 
# Disc length: 4211
# 
# Revision: 2
# Processed by: cddbd v1.5.2PL0 Copyright (c) Steve Scherf et al.
# Submitted via: fre:ac v1.0.31
# 
DISCID=4c107117
DTITLE=Billie Holiday - Jazz Ballads 12 - CD 2
DYEAR=2004
DGENRE=Jazz
TTITLE0=That Ole Devil Called Love
TTITLE1=Body And Soul
TTITLE2=Good Morning Heartache
TTITLE3=No Good Man
TTITLE4=Big Stuff
TTITLE5=The Man I Love
TTITLE6=There Is No Greter Love
TTITLE7=Easy Living
TTITLE8=I Loves You Porgy
TTITLE9=God Bless The Child
TTITLE10=Blue Turning Grey Over Me
TTITLE11=Detour Ahead
TTITLE12=Everything I Have Is Yours
TTITLE13=Love For Sale
TTITLE14=Moonglow
TTITLE15=Tenderly
TTITLE16=If The Moon Turns Green
TTITLE17=Autumn In New York
TTITLE18=Love Me Or Leave Me
TTITLE19=P.S. I Love You
TTITLE20=Softly
TTITLE21=I Thought About You
TTITLE22=Willow Weep For ME
EXTD=
EXTT0=
EXTT1=
EXTT2=
EXTT3=
EXTT4=
EXTT5=
EXTT6=
EXTT7=
EXTT8=
EXTT9=
EXTT10=
EXTT11=
EXTT12=
EXTT13=
EXTT14=
EXTT15=
EXTT16=
EXTT17=
EXTT18=
EXTT19=
EXTT20=
EXTT21=
EXTT22=
PLAYORDER=
